<?xml version="1.0" standalone="no"?>
<!DOCTYPE svg PUBLIC "-//W3C//DTD SVG 20010904//EN"
 "http://www.w3.org/TR/2001/REC-SVG-20010904/DTD/svg10.dtd">
<svg version="1.0" xmlns="http://www.w3.org/2000/svg"
 width="871.000000pt" height="549.000000pt" viewBox="0 0 871.000000 549.000000"
 preserveAspectRatio="xMidYMid meet">

<g transform="translate(0.000000,549.000000) scale(0.100000,-0.100000)"
fill="#000000" stroke="none">
<path d="M3905 5134 c-1084 -58 -2091 -406 -2738 -947 -140 -117 -155 -130
-224 -198 -96 -94 -258 -274 -295 -329 -10 -14 -34 -47 -53 -75 -20 -27 -40
-59 -46 -70 -5 -11 -20 -38 -34 -60 -31 -49 -115 -219 -148 -300 -112 -270
-160 -670 -113 -945 50 -295 114 -461 298 -770 37 -63 191 -250 275 -336 184
-186 480 -401 713 -517 199 -100 303 -143 500 -208 102 -33 187 -63 190 -66 7
-8 -47 3 -105 20 -172 52 -223 69 -250 81 -16 8 -66 29 -110 46 -134 53 -385
180 -475 240 -47 31 -103 69 -125 84 -150 100 -312 238 -435 372 -55 59 -129
146 -142 167 -4 6 -10 8 -14 5 -3 -4 10 -32 30 -62 20 -30 36 -58 36 -62 0 -3
10 -16 23 -28 13 -12 26 -30 30 -39 4 -10 11 -15 17 -12 5 3 10 -2 10 -12 0
-19 157 -179 264 -268 76 -63 249 -184 368 -257 111 -67 406 -208 438 -208 6
0 21 -6 33 -14 24 -15 353 -125 452 -151 115 -31 390 -87 418 -86 15 1 27 -4
27 -9 0 -6 5 -8 10 -5 9 6 54 -1 145 -21 109 -25 788 -31 951 -9 265 35 669
143 894 240 193 83 432 217 540 302 271 213 350 296 499 521 118 178 185 352
220 567 13 81 21 244 12 249 -3 2 -6 25 -6 50 0 25 -3 46 -8 46 -4 0 -6 4 -3
9 5 8 -3 43 -21 91 -4 8 -7 20 -7 25 -8 52 -70 222 -91 245 -13 15 -15 19 -15
41 0 5 -4 8 -9 5 -5 -3 -12 6 -16 22 -10 40 -36 92 -44 88 -4 -3 -13 4 -20 16
-8 13 -9 18 -1 13 7 -4 7 1 -2 14 -7 12 -14 17 -16 11 -2 -6 -8 -8 -12 -5 -5
3 -7 12 -3 20 3 9 -1 15 -11 15 -9 0 -13 6 -10 13 3 8 -3 20 -12 28 -15 12
-17 12 -9 0 5 -10 4 -12 -3 -7 -7 4 -12 13 -12 20 0 8 -8 20 -17 27 -17 13
-17 13 -3 -6 14 -18 14 -19 -2 -7 -9 8 -15 19 -12 26 3 7 -9 24 -26 39 -38 34
-54 36 -17 2 15 -14 27 -28 27 -32 0 -7 -104 89 -109 101 -2 5 7 0 19 -12 13
-12 29 -22 34 -22 14 1 -95 99 -109 99 -5 0 2 -11 18 -24 15 -13 27 -27 27
-31 0 -4 -13 5 -30 21 -16 16 -28 31 -25 33 3 3 0 11 -6 19 -9 10 -15 11 -26
2 -11 -9 -12 -9 -8 4 4 8 1 18 -6 23 -8 4 -10 3 -5 -4 4 -7 1 -12 -8 -12 -9 0
-13 6 -10 14 3 8 0 17 -7 22 -8 5 -10 3 -4 -6 5 -8 3 -11 -6 -8 -8 3 -14 10
-14 16 0 5 -3 14 -7 18 -5 4 -8 2 -8 -5 0 -7 -5 -9 -10 -6 -6 4 -8 10 -5 15 8
12 -33 33 -47 24 -6 -4 -8 -3 -4 4 6 11 -16 26 -116 80 -32 17 -58 27 -58 22
0 -6 4 -10 8 -10 5 0 17 -7 28 -16 21 -17 14 -16 -28 5 -15 8 -25 18 -21 24 7
12 -16 27 -42 26 -17 0 -17 -1 4 -10 13 -5 21 -12 19 -15 -3 -3 -23 3 -44 12
-22 9 -45 18 -52 20 -20 4 -27 13 -17 22 4 4 10 1 12 -6 3 -6 9 -9 15 -6 6 4
1 12 -13 19 -20 11 -25 10 -37 -4 -12 -14 -13 -14 -9 7 3 12 2 22 -1 23 -4 0
-15 2 -24 4 -20 4 -25 -11 -5 -18 6 -2 1 -2 -13 0 -32 6 -38 12 -21 22 10 6 9
10 -4 15 -9 3 -21 4 -25 1 -5 -3 -11 -1 -15 5 -3 5 -18 10 -33 9 -25 -1 -23
-2 17 -15 8 -2 11 -7 9 -10 -3 -3 -23 2 -43 10 -21 9 -47 16 -60 16 -12 0 -25
3 -29 8 -4 4 -11 7 -14 8 -80 12 -131 33 -85 35 10 0 5 4 -11 10 -17 4 -32 6
-35 4 -2 -3 1 -5 7 -5 7 0 12 -4 12 -10 0 -5 -9 -10 -20 -10 -11 0 -20 5 -20
11 0 7 -12 8 -32 5 -31 -6 -31 -5 -8 5 30 12 17 23 -40 32 -19 3 -29 3 -22 0
23 -9 12 -23 -13 -17 -16 4 -25 2 -25 -5 0 -9 -5 -9 -21 -1 -15 8 -24 8 -33 0
-9 -7 -34 -8 -72 -3 -51 6 -55 8 -29 14 l30 7 -32 1 c-18 0 -33 -2 -33 -6 0
-7 -120 -10 -180 -5 -18 2 -21 5 -11 11 13 9 -1 12 -103 28 -27 4 -37 2 -32
-6 4 -6 17 -11 29 -12 12 0 31 -5 42 -10 15 -7 11 -7 -15 -3 -19 3 -43 8 -54
11 -12 3 -16 1 -12 -6 4 -6 -3 -12 -16 -15 -58 -11 -115 -24 -133 -30 -13 -5
-11 -2 5 8 14 8 34 15 44 16 11 0 17 3 13 6 -9 9 -65 -6 -81 -21 -15 -15 -54
-24 -148 -32 -59 -5 -68 -3 -68 11 0 9 -4 16 -10 16 -11 0 -1 -32 14 -42 6 -5
2 -8 -10 -8 -12 0 -35 -7 -50 -15 -16 -8 -41 -15 -56 -15 -16 0 -28 -3 -28 -8
0 -4 -27 -18 -60 -31 -33 -13 -60 -27 -60 -31 0 -4 -12 -12 -27 -19 -20 -9
-28 -9 -33 0 -6 8 -9 8 -14 0 -4 -6 -4 -11 1 -11 4 -1 -9 -10 -31 -21 -27 -15
-41 -18 -49 -10 -8 8 -3 11 16 11 20 0 31 7 39 25 6 14 15 25 19 25 4 0 15 3
25 7 12 4 15 3 10 -5 -4 -7 -3 -12 3 -12 5 0 14 6 18 13 9 16 69 47 90 47 7 0
22 9 34 21 12 12 29 19 40 16 21 -6 27 8 7 16 -7 3 2 5 20 4 18 0 41 7 50 16
9 10 11 17 5 17 -7 0 -14 -4 -18 -9 -3 -6 -13 -9 -23 -9 -25 2 -172 -53 -172
-64 0 -5 9 -4 19 2 11 5 23 10 28 9 26 -1 -100 -51 -139 -54 -33 -3 -69 -18
-122 -51 -75 -45 -89 -57 -63 -53 25 3 38 -1 32 -11 -3 -5 1 -10 11 -10 13 0
14 3 4 15 -10 12 -9 16 5 21 13 5 14 9 3 15 -9 6 -8 9 7 9 32 0 49 -16 40 -36
-5 -13 -9 -15 -12 -6 -6 17 -23 15 -23 -3 0 -8 -18 -27 -40 -41 -40 -26 -41
-27 -56 -8 -9 10 -13 13 -9 7 4 -9 1 -11 -9 -7 -9 3 -16 2 -16 -4 0 -5 7 -12
15 -16 20 -7 19 -19 -3 -33 -15 -9 -19 -8 -19 3 0 8 5 14 10 14 6 0 8 3 5 6
-4 3 -16 0 -28 -6 -15 -8 -20 -18 -17 -32 4 -14 1 -18 -8 -14 -7 2 -19 -2 -27
-11 -11 -14 -10 -16 9 -11 15 4 20 2 16 -8 -4 -10 -10 -11 -23 -4 -24 13 -33
13 -25 0 3 -5 -4 -23 -17 -40 -22 -30 -23 -30 -30 -9 -9 25 -3 39 18 39 8 0
13 4 9 9 -3 5 4 12 15 16 24 8 27 25 4 25 -14 0 -14 1 0 16 9 8 16 18 16 22 0
12 -149 -137 -150 -150 0 -4 7 -14 16 -23 9 -8 13 -22 10 -30 -7 -20 11 -19
22 1 11 20 -15 57 -32 47 -6 -3 2 9 19 28 16 19 34 39 38 44 5 6 5 -2 2 -18
-5 -16 -2 -33 5 -42 9 -11 9 -15 1 -15 -6 0 -14 7 -17 15 -4 8 -10 12 -16 9
-16 -10 29 -35 49 -27 12 5 7 -6 -17 -37 -19 -25 -38 -46 -42 -48 -5 -2 -8
-10 -8 -18 0 -8 -6 -25 -14 -37 -7 -12 -19 -49 -26 -82 -7 -33 -16 -73 -20
-90 l-7 -30 -8 28 c-4 15 -11 27 -16 27 -5 0 -6 -7 -2 -16 3 -9 0 -20 -7 -24
-11 -7 -8 -16 13 -44 29 -37 34 -62 15 -68 -7 -3 -9 -12 -5 -22 4 -9 11 -15
15 -12 5 3 6 -8 4 -25 -2 -16 -1 -29 3 -29 11 0 35 28 35 42 0 10 2 10 9 -1 7
-11 12 -4 21 27 6 23 15 42 19 42 5 0 16 30 26 68 16 67 44 130 45 102 0 -8
18 13 40 47 22 34 69 86 103 117 117 104 124 109 114 82 -5 -13 -1 -13 34 -1
38 14 39 14 28 -6 -6 -12 -9 -22 -7 -24 6 -6 90 16 143 37 28 10 77 30 110 43
102 39 397 100 453 93 29 -4 0 -11 -176 -43 -89 -16 -145 -35 -257 -85 -90
-41 -236 -152 -274 -209 -13 -20 -37 -51 -52 -69 -111 -128 -118 -352 -16
-501 40 -59 38 -57 130 -125 130 -96 169 -106 415 -112 132 -3 170 -1 193 12
16 8 29 12 29 9 0 -2 21 9 47 25 26 17 54 30 64 30 9 0 22 6 28 14 7 8 27 18
44 22 17 3 41 13 53 20 29 20 115 13 145 -12 60 -48 63 -116 10 -226 -59 -121
-149 -199 -316 -275 -185 -85 -489 -123 -722 -93 -265 35 -486 121 -700 270
-63 44 -118 80 -123 80 -5 0 -12 5 -16 12 -5 7 -3 8 6 3 9 -5 11 -4 6 4 -4 6
-12 9 -17 5 -6 -3 -20 2 -32 13 -21 18 -21 18 -7 -2 7 -11 32 -39 54 -62 22
-24 41 -51 42 -60 3 -22 68 -81 148 -136 60 -41 233 -126 296 -145 171 -54
342 -91 425 -93 l50 -1 -50 -9 c-51 -10 -149 0 -270 27 -69 15 -86 11 -26 -7
56 -17 45 -22 -15 -8 -57 13 -154 27 -154 22 0 -12 150 -67 215 -79 44 -7 118
-21 165 -31 113 -22 402 -22 554 0 124 19 283 63 406 112 52 21 88 31 94 25
12 -12 -110 -68 -240 -110 -54 -17 -103 -35 -109 -40 -9 -7 -195 -50 -218 -50
-4 0 -6 -3 -3 -8 5 -8 14 -8 -314 -18 -233 -7 -234 -7 -158 -20 215 -34 437
-27 711 22 76 13 142 22 147 19 6 -4 10 -3 10 2 0 4 14 9 31 10 38 3 192 65
272 110 33 18 63 33 68 33 10 0 79 43 119 75 57 45 180 175 231 245 31 41 66
103 79 137 14 34 29 59 34 56 5 -4 6 8 3 28 -5 21 -4 29 2 20 14 -22 22 31 23
165 1 106 -1 126 -24 184 -40 100 -42 108 -14 65 33 -51 34 -28 1 36 -41 82
-80 132 -161 208 -42 39 -69 68 -60 65 9 -3 16 -3 16 1 0 13 -30 32 -128 86
-51 28 -91 53 -88 56 2 2 36 -9 74 -26 39 -17 73 -31 76 -31 17 0 2 21 -26 39
-18 11 -39 30 -47 43 -13 20 -12 22 1 11 8 -7 17 -10 21 -7 3 3 14 1 24 -5 16
-9 16 -10 -7 -11 -24 -1 -24 -1 5 -14 21 -9 32 -10 38 -2 5 6 5 1 2 -11 -6
-21 -3 -23 29 -23 20 0 36 4 36 9 0 5 7 8 15 7 19 -3 32 -16 16 -16 -19 0 -4
-17 29 -34 17 -8 30 -10 30 -5 0 6 4 8 10 4 5 -3 7 -12 3 -20 -4 -11 -1 -13
11 -9 9 3 16 2 16 -4 0 -5 -7 -12 -15 -16 -8 -3 -15 -11 -15 -17 0 -7 8 -6 24
4 23 15 24 15 28 -8 3 -13 0 -26 -6 -28 -8 -3 -8 -8 0 -17 8 -8 14 -9 18 -1
13 20 27 12 21 -11 -4 -15 -3 -18 3 -10 12 17 47 -21 39 -43 -4 -10 0 -15 12
-15 10 0 30 -18 46 -42 16 -24 36 -55 46 -70 11 -15 15 -29 11 -32 -5 -3 -17
12 -27 32 -28 55 -55 92 -66 92 -6 0 -1 -13 10 -29 12 -16 21 -32 21 -35 0 -3
13 -26 28 -51 22 -36 30 -43 41 -33 10 11 10 8 3 -12 -6 -16 -6 -34 0 -50 32
-85 53 -321 28 -305 -6 4 -10 -5 -10 -20 0 -79 -78 -273 -149 -369 -45 -61
-229 -228 -324 -294 -118 -82 -334 -178 -522 -233 -92 -27 -154 -39 -360 -71
-44 -6 -170 -12 -280 -12 -470 0 -805 84 -1223 310 -157 85 -406 303 -511 449
-160 220 -230 383 -260 600 -43 303 57 663 264 950 114 159 258 302 448 447
240 183 617 357 978 452 642 168 1369 173 2010 12 371 -93 720 -234 1004 -405
149 -90 328 -218 402 -286 21 -20 58 -52 81 -73 24 -20 75 -68 114 -107 62
-61 79 -72 44 -26 -11 15 -17 41 -9 41 3 0 12 -8 19 -17 7 -10 13 -13 14 -8 0
23 -285 290 -365 341 -16 10 -55 37 -85 60 -80 59 -221 145 -334 204 -55 29
-107 56 -115 61 -9 4 -38 18 -66 30 -103 44 -121 52 -150 65 -160 73 -465 165
-720 218 -304 63 -479 80 -830 80 -282 0 -381 -6 -615 -40 -910 -132 -1660
-564 -2008 -1157 -82 -138 -142 -298 -163 -429 -14 -87 -34 -119 -23 -38 12
94 -5 49 -21 -56 -17 -114 -19 -220 -5 -317 11 -73 5 -126 -13 -108 -5 5 -12
100 -15 218 -6 202 -18 226 -17 31 1 -62 -3 -96 -10 -95 -5 1 -9 -4 -7 -11 2
-10 -2 -10 -18 -2 -30 16 -36 10 -29 -35 l6 -40 3 40 c1 22 4 32 7 22 3 -11
11 -16 19 -13 9 4 14 -2 14 -15 0 -11 5 -17 10 -14 6 3 10 1 10 -4 0 -6 -4
-11 -9 -11 -6 0 -14 -19 -20 -42 l-11 -43 4 43 c2 23 1 42 -4 42 -16 0 -19
-32 -8 -83 7 -33 13 -45 16 -32 2 11 10 24 18 28 8 4 14 16 13 25 0 14 -2 13
-9 -3 -8 -20 -9 -20 -9 1 -1 11 6 29 14 40 14 18 14 17 15 -13 0 -17 3 -38 6
-47 4 -10 1 -16 -9 -16 -38 0 -35 -84 6 -180 6 -14 14 -34 18 -45 6 -18 7 -18
8 -2 1 10 -3 26 -8 36 -8 14 -4 19 20 28 23 9 29 9 29 -3 0 -7 9 -28 20 -46
19 -32 29 -68 10 -38 -7 11 -9 8 -7 -14 1 -21 -3 -29 -16 -31 -13 -3 -16 1
-13 13 7 22 -8 47 -23 38 -17 -11 -13 -26 5 -19 13 5 15 2 10 -15 -7 -20 15
-76 31 -84 5 -1 19 -25 33 -53 17 -33 26 -43 28 -31 2 10 -5 24 -15 31 -10 7
-15 17 -11 21 4 4 14 1 23 -6 12 -10 15 -10 16 1 0 8 5 -1 10 -19 5 -17 14
-32 19 -32 13 0 13 17 0 25 -5 3 -10 11 -10 18 0 6 10 -4 23 -23 50 -75 68
-110 58 -110 -6 0 -11 8 -12 18 0 13 -2 12 -9 -6 -13 -31 -17 -28 -12 10 3 22
0 35 -14 45 -28 20 -42 15 -16 -6 25 -22 28 -31 8 -31 -7 0 -20 10 -29 22 -8
13 -17 21 -20 18 -3 -3 10 -27 30 -54 25 -35 38 -45 46 -37 17 17 55 13 67 -8
13 -25 13 -31 0 -31 -5 0 -10 6 -10 14 0 17 -18 31 -27 22 -3 -3 0 -12 7 -21
8 -9 8 -15 2 -15 -6 0 -14 5 -17 10 -3 5 -11 10 -16 10 -6 0 9 -22 33 -50 24
-27 47 -50 52 -50 6 0 -2 13 -17 28 -33 34 -33 37 -3 40 18 1 42 -17 97 -76
41 -42 100 -100 131 -127 40 -36 55 -54 49 -64 -5 -8 -14 -10 -22 -6 -9 6 -8
10 7 16 15 6 11 8 -15 8 -33 1 -34 1 -16 -19 10 -11 23 -20 30 -20 6 0 22 -11
35 -25 13 -14 30 -23 38 -20 7 2 11 1 8 -3 -2 -4 15 -20 37 -37 23 -16 36 -22
28 -12 -11 14 -11 17 0 17 12 0 12 2 0 9 -8 5 -20 7 -27 4 -6 -2 -15 0 -18 6
-11 17 38 9 59 -10 11 -10 34 -25 50 -34 30 -17 30 -17 3 -11 -46 10 -39 -8
14 -38 28 -16 48 -24 44 -17 -4 6 -2 11 4 11 6 0 8 5 5 10 -3 6 -11 10 -16 10
-6 0 -8 -4 -5 -9 4 -5 -3 -7 -14 -4 -11 3 -23 10 -26 15 -4 6 2 7 16 3 17 -5
21 -4 15 5 -10 16 5 8 52 -26 17 -13 38 -24 45 -24 9 0 9 -3 -2 -10 -18 -12
-33 -13 -26 -2 2 4 -4 9 -15 9 -27 2 -24 -4 11 -22 33 -17 44 -19 36 -6 -3 5
5 8 18 7 13 0 22 -4 20 -7 -2 -3 16 -12 39 -19 51 -16 63 -25 46 -35 -8 -6
-10 -4 -5 4 5 8 3 11 -5 10 -8 -1 -31 5 -51 14 -59 27 -58 19 2 -12 30 -16 60
-26 67 -24 7 3 13 0 13 -5 0 -6 25 -20 55 -31 65 -25 80 -26 45 -5 l-25 15 25
-7 c37 -10 109 -45 80 -39 -21 5 -22 4 -7 -5 9 -6 26 -8 37 -5 12 4 20 2 20
-5 0 -7 7 -9 16 -6 8 3 12 2 9 -4 -3 -5 7 -8 24 -5 24 3 29 0 24 -12 -4 -11
-2 -14 5 -9 6 4 28 -1 49 -9 21 -9 61 -16 90 -16 31 0 58 -5 66 -13 13 -13 63
-25 133 -31 18 -2 44 -6 56 -10 18 -5 20 -4 8 4 -20 14 -8 14 27 0 70 -28 425
-36 623 -15 356 39 595 98 817 202 52 24 99 41 104 38 5 -3 8 0 7 8 -2 7 3 13
10 13 33 0 2 -25 -88 -71 -207 -108 -418 -174 -696 -221 -130 -21 -202 -27
-394 -30 -440 -9 -710 35 -1080 174 -36 13 -66 24 -68 23 -1 0 -49 22 -106 50
-57 27 -107 50 -112 50 -21 0 -200 111 -304 189 -357 265 -579 597 -673 1001
-19 80 -22 123 -21 275 0 231 25 363 104 560 33 84 127 258 141 263 5 2 9 8 9
13 0 6 19 36 43 67 23 31 45 61 49 67 39 54 138 165 203 226 405 386 993 667
1666 799 249 48 411 66 719 80 387 17 743 -9 1115 -81 163 -32 529 -134 640
-179 11 -4 40 -16 65 -25 25 -10 59 -24 77 -31 17 -8 33 -14 36 -14 3 0 62
-27 132 -60 70 -33 128 -60 130 -60 2 0 32 -16 67 -36 71 -41 119 -62 103 -45
-38 39 -332 188 -520 264 -367 150 -864 277 -1175 301 -650 51 -1136 20 -1650
-106 -90 -22 -187 -53 -386 -123 -629 -223 -1114 -579 -1398 -1026 -34 -52
-67 -104 -74 -115 -6 -10 -16 -29 -22 -42 -5 -12 -18 -31 -27 -42 -46 -49
-112 -208 -152 -366 -82 -327 16 -819 218 -1099 20 -27 45 -63 55 -80 31 -48
158 -195 232 -267 142 -138 345 -280 549 -383 169 -86 230 -111 400 -164 463
-143 879 -189 1265 -141 41 5 129 16 195 25 141 17 334 63 458 107 95 34 122
34 55 0 -128 -64 -485 -163 -708 -197 -136 -21 -530 -25 -650 -6 -41 6 -106
16 -145 22 -38 5 -86 12 -105 14 -41 4 -78 12 -140 30 -25 7 -90 23 -145 36
-117 26 -214 60 -345 122 -100 47 -172 79 -180 81 -15 4 -286 172 -335 208
-166 122 -226 172 -293 243 -99 104 -225 258 -270 328 -42 65 -132 244 -166
326 -61 150 -104 447 -92 638 11 189 95 475 189 642 117 209 194 316 323 451
45 47 94 99 110 117 16 17 72 67 124 112 52 44 104 88 115 98 31 29 109 86
185 136 51 35 47 46 -6 16 -83 -47 -145 -79 -151 -79 -4 0 4 11 17 25 13 14
27 25 32 25 5 0 21 8 36 19 65 45 170 111 177 111 4 0 19 9 34 19 59 43 343
178 506 242 55 22 115 46 133 54 18 8 40 15 48 15 8 0 12 5 9 10 -3 6 -1 10 4
10 6 0 11 4 11 9 0 19 -269 -68 -423 -138 -38 -17 -74 -28 -79 -24 -7 4 -8 1
-3 -7 6 -9 2 -10 -15 -5 -15 5 -20 4 -16 -4 7 -11 6 -12 -30 -16 -52 -5 -518
-277 -627 -365 -89 -72 -183 -156 -281 -253 -65 -64 -121 -115 -123 -113 -6 6
219 231 286 286 104 86 175 142 201 159 14 8 50 35 82 58 31 24 59 43 62 43 3
0 29 15 58 33 29 19 78 47 108 63 30 16 57 32 60 35 9 11 204 106 306 149 259
109 523 194 939 301 83 21 75 23 -32 8 -204 -28 -608 -143 -891 -255 -171 -68
-483 -226 -596 -302 -26 -18 -51 -32 -55 -32 -4 0 -16 -9 -26 -20 -10 -11 -22
-20 -27 -20 -8 0 -206 -145 -218 -159 -3 -3 -44 -39 -92 -79 -216 -182 -422
-441 -545 -687 -144 -286 -216 -656 -184 -950 18 -157 38 -244 88 -380 103
-276 243 -496 453 -706 307 -308 594 -486 1060 -656 246 -90 541 -152 870
-184 134 -13 544 -6 635 11 28 4 91 15 140 23 139 23 291 56 390 83 187 52
483 164 493 186 2 5 8 8 13 8 9 0 261 154 293 180 157 126 329 295 351 347 7
17 31 58 52 90 60 92 89 151 121 248 30 90 55 272 40 281 -4 3 -8 38 -8 77 0
40 -7 113 -15 162 -18 107 -18 118 -5 110 12 -7 12 8 1 55 -7 31 -6 36 11 36
10 0 16 -6 14 -12 -3 -8 3 -11 15 -9 16 3 19 0 15 -12 -5 -12 -1 -14 21 -8 27
6 27 6 8 -9 -20 -15 -20 -15 1 -10 25 7 41 -22 73 -136 12 -41 26 -89 31 -106
24 -76 2 -294 -42 -410 -60 -159 -180 -366 -273 -470 -275 -310 -575 -500
-1040 -659 -395 -135 -919 -192 -1390 -151 -178 16 -222 22 -430 61 -140 26
-349 80 -425 110 -19 7 -59 21 -89 30 -30 9 -73 25 -95 35 -23 10 -75 33 -116
50 -89 37 -259 126 -350 184 -35 23 -72 46 -82 51 -152 89 -444 351 -579 520
-204 255 -332 524 -389 820 -65 339 -48 592 64 936 13 42 29 85 34 95 5 11 32
67 60 125 193 395 530 762 967 1050 252 166 605 340 895 440 171 60 187 65
285 92 459 128 906 191 1445 203 424 10 796 -24 1255 -115 59 -11 366 -87 410
-101 200 -63 467 -156 530 -185 16 -8 53 -23 80 -34 70 -27 322 -146 337 -159
7 -6 42 -24 78 -42 36 -17 79 -40 95 -50 17 -11 39 -24 50 -30 27 -14 38 -21
210 -134 134 -88 187 -126 248 -176 10 -8 27 -22 37 -30 10 -8 31 -24 47 -35
15 -11 74 -62 130 -112 56 -51 105 -93 110 -93 14 0 -244 245 -337 320 -30 25
-57 48 -60 51 -11 13 -293 211 -316 221 -13 6 -24 15 -24 20 0 4 -6 8 -14 8
-8 0 -21 7 -30 15 -8 8 -25 19 -38 25 -13 5 -45 23 -73 40 -209 127 -678 326
-975 414 -328 97 -729 176 -1108 217 -181 20 -665 33 -847 23z m-26 -1768 c-2
-2 -17 -6 -34 -10 -22 -5 -26 -4 -15 4 14 9 59 15 49 6z m564 -3 c-7 -2 -19
-2 -25 0 -7 3 -2 5 12 5 14 0 19 -2 13 -5z m2243 -112 c1 -20 0 -21 -17 -5
-10 9 -16 21 -13 26 10 16 29 2 30 -21z m-1856 15 c0 -2 -7 -7 -16 -10 -8 -3
-12 -2 -9 4 6 10 25 14 25 6z m-1760 -86 c0 -12 -60 -44 -67 -36 -7 7 38 45
55 46 6 0 12 -4 12 -10z m-120 -60 c0 -5 -5 -10 -11 -10 -5 0 -7 5 -4 10 3 6
8 10 11 10 2 0 4 -4 4 -10z m2226 -16 c18 -14 18 -14 -6 -3 -31 14 -36 19 -24
19 6 0 19 -7 30 -16z m64 -40 c0 -2 -9 0 -20 6 -11 6 -20 13 -20 16 0 2 9 0
20 -6 11 -6 20 -13 20 -16z m-2500 -104 c0 -5 -5 -10 -11 -10 -5 0 -7 5 -4 10
3 6 8 10 11 10 2 0 4 -4 4 -10z m30 -65 c-7 -8 -17 -15 -22 -15 -6 0 -5 7 2
15 7 8 17 15 22 15 6 0 5 -7 -2 -15z m-1513 -382 c-3 -10 -5 -4 -5 12 0 17 2
24 5 18 2 -7 2 -21 0 -30z m-10 -385 c-3 -8 -6 -5 -6 6 -1 11 2 17 5 13 3 -3
4 -12 1 -19z m-7 -34 c0 -8 -4 -12 -10 -9 -5 3 -10 13 -10 21 0 8 5 12 10 9 6
-3 10 -13 10 -21z m-20 -19 c7 -13 17 -22 21 -19 5 3 6 -1 3 -9 -3 -8 -1 -18
5 -22 6 -3 11 -14 11 -23 -1 -13 -5 -10 -16 8 l-15 25 7 -25 c3 -14 6 -27 6
-30 1 -42 -28 -34 -47 13 -10 24 -13 51 -9 73 7 40 16 43 34 9z m49 -20 c0 -5
-4 -3 -9 5 -5 8 -9 22 -9 30 0 16 17 -16 18 -35z m61 -290 c-8 -9 -6 -14 5
-19 8 -3 15 0 16 7 0 9 2 9 6 0 10 -25 7 -28 -19 -28 -15 -1 -25 2 -22 6 2 4
0 11 -6 14 -8 5 -7 11 1 21 15 18 4 31 -14 16 -14 -12 -27 -7 -27 10 0 5 4 6
10 3 5 -3 15 6 22 21 l12 27 14 -33 c9 -23 10 -36 2 -45z m2950 -389 c0 -2
-12 -11 -27 -20 l-28 -17 24 20 c23 21 31 25 31 17z m-815 -127 c-22 -4 -71
-7 -110 -7 l-70 2 75 6 c41 4 91 7 110 7 l35 1 -40 -9z m-1630 -49 c7 0 19 -8
26 -17 12 -16 12 -17 -2 -6 -9 7 -18 10 -22 7 -3 -3 -17 2 -32 12 -25 16 -26
19 -9 25 12 4 20 1 22 -7 2 -8 9 -14 17 -14z m507 -912 c49 -11 86 -23 84 -25
-5 -5 -186 37 -186 43 0 7 10 5 102 -18z m131 -35 c-7 -2 -19 -2 -25 0 -7 3
-2 5 12 5 14 0 19 -2 13 -5z m44 -9 c-3 -3 -12 -4 -19 -1 -8 3 -5 6 6 6 11 1
17 -2 13 -5z m316 -41 c-13 -2 -33 -2 -45 0 -13 2 -3 4 22 4 25 0 35 -2 23 -4z
m90 -10 c-7 -2 -21 -2 -30 0 -10 3 -4 5 12 5 17 0 24 -2 18 -5z"/>
<path d="M1203 2054 c-17 -17 -16 -33 1 -40 8 -3 12 -13 9 -23 -3 -11 1 -18
10 -18 12 0 13 6 5 29 -6 15 -15 28 -21 29 -7 0 -4 3 5 7 10 4 14 12 10 18 -5
9 -10 8 -19 -2z"/>
<path d="M3368 4833 c7 -3 16 -2 19 1 4 3 -2 6 -13 5 -11 0 -14 -3 -6 -6z"/>
<path d="M3248 4813 c7 -3 16 -2 19 1 4 3 -2 6 -13 5 -11 0 -14 -3 -6 -6z"/>
<path d="M4578 4583 c7 -3 16 -2 19 1 4 3 -2 6 -13 5 -11 0 -14 -3 -6 -6z"/>
<path d="M3873 4404 c7 -8 197 -7 205 1 3 3 -43 5 -103 5 -60 0 -106 -3 -102
-6z"/>
<path d="M4198 4403 c7 -3 16 -2 19 1 4 3 -2 6 -13 5 -11 0 -14 -3 -6 -6z"/>
<path d="M3705 4389 c-7 -11 61 -11 89 0 13 5 3 8 -32 9 -28 0 -54 -3 -57 -9z"/>
<path d="M3594 4383 c3 -4 26 -7 51 -8 25 -1 43 0 40 3 -3 3 -26 7 -52 9 -25
1 -43 -1 -39 -4z"/>
<path d="M3540 4370 c0 -5 12 -10 26 -10 14 0 23 4 19 10 -3 6 -15 10 -26 10
-10 0 -19 -4 -19 -10z"/>
<path d="M3428 4362 c-11 -4 -14 -12 -9 -20 6 -9 14 -10 32 -2 22 10 23 10 1
6 -12 -2 -19 0 -16 5 3 6 27 8 52 5 34 -4 40 -3 22 3 -31 11 -59 12 -82 3z"/>
<path d="M3355 4350 c-3 -6 1 -7 9 -4 9 3 16 1 16 -5 0 -6 5 -11 10 -11 6 0
10 7 10 15 0 17 -35 21 -45 5z"/>
<path d="M3300 4340 c-8 -5 -10 -10 -5 -10 6 0 17 5 25 10 8 5 11 10 5 10 -5
0 -17 -5 -25 -10z"/>
<path d="M3245 4330 c-18 -8 -18 -9 -2 -9 10 -1 15 -5 12 -11 -8 -13 5 -13 25
0 12 8 12 10 -5 10 -17 0 -17 2 -5 10 18 12 2 12 -25 0z"/>
<path d="M3310 4320 c-18 -12 -2 -12 25 0 13 6 15 9 5 9 -8 0 -22 -4 -30 -9z"/>
<path d="M3117 4297 c3 -5 -4 -6 -16 -2 -13 4 -28 1 -37 -6 -8 -6 -17 -9 -21
-6 -3 4 -11 2 -18 -3 -6 -5 -25 -10 -42 -12 -18 -1 -30 -5 -28 -9 3 -3 17 -4
32 -1 16 2 26 2 23 -1 -3 -3 -17 -7 -30 -9 -32 -4 -50 -16 -50 -31 0 -9 2 -9
8 0 4 6 24 14 45 18 20 4 37 11 37 16 0 5 7 9 15 9 8 0 15 -5 15 -11 0 -5 5
-7 11 -4 6 4 8 13 5 20 -2 7 2 16 10 19 24 9 27 7 14 -9 -10 -12 -10 -15 4
-15 9 0 16 4 16 9 0 5 10 7 23 5 12 -2 16 -2 10 2 -27 12 -11 21 31 17 24 -3
46 -1 49 3 3 5 -21 9 -53 9 -33 1 -56 -3 -53 -8z"/>
<path d="M2907 4249 c-11 -6 -33 -13 -50 -16 -39 -6 -67 -20 -67 -33 0 -6 -18
-10 -41 -10 -23 0 -56 -7 -75 -16 -32 -15 -33 -17 -17 -31 17 -13 16 -14 -4
-8 -13 4 -23 2 -23 -4 0 -19 15 -19 52 -1 20 10 41 15 45 12 4 -4 2 0 -6 8
-10 11 -15 12 -18 3 -6 -17 -23 -16 -23 1 0 19 15 23 76 22 33 -1 50 3 47 10
-2 6 15 17 39 24 44 14 111 50 93 50 -5 0 -18 -5 -28 -11z"/>
<path d="M2758 4203 c7 -3 16 -2 19 1 4 3 -2 6 -13 5 -11 0 -14 -3 -6 -6z"/>
<path d="M2850 4201 c0 -5 -6 -11 -12 -14 -7 -2 -2 -2 12 0 34 6 50 23 22 23
-12 0 -22 -4 -22 -9z"/>
<path d="M2745 4160 c-8 -13 5 -13 25 0 13 8 13 10 -2 10 -9 0 -20 -4 -23 -10z"/>
<path d="M2610 4152 c-8 -4 -16 -13 -18 -20 -1 -8 2 -11 8 -7 5 3 10 1 10 -4
0 -10 -13 -15 -32 -13 -3 1 -9 -6 -12 -14 -4 -10 -2 -14 6 -10 7 3 20 9 29 12
10 3 19 19 21 35 3 16 4 29 4 28 -1 0 -8 -3 -16 -7z"/>
<path d="M2565 4130 c-3 -5 -1 -10 4 -10 6 0 11 5 11 10 0 6 -2 10 -4 10 -3 0
-8 -4 -11 -10z"/>
<path d="M2523 4118 c-19 -9 -40 -54 -30 -65 3 -2 7 7 11 21 4 17 11 23 21 19
13 -5 13 -7 -2 -19 -21 -16 -5 -19 17 -3 13 9 13 11 -2 21 -15 11 -15 13 0 25
20 15 15 15 -15 1z"/>
<path d="M2452 4089 c-18 -5 -30 -14 -27 -19 4 -6 -6 -10 -22 -10 -22 0 -25
-2 -13 -10 8 -5 10 -10 4 -10 -7 0 -14 -9 -17 -20 -3 -11 -10 -20 -16 -20 -9
0 -9 5 -1 21 7 11 8 24 4 27 -4 4 -9 2 -11 -5 -9 -26 -40 -51 -52 -43 -10 6
-8 10 8 15 13 4 20 9 18 11 -7 7 -57 -18 -57 -28 0 -4 -5 -8 -10 -8 -6 0 -45
-19 -86 -41 -54 -30 -72 -44 -62 -50 9 -6 9 -9 1 -9 -6 0 -11 -9 -10 -20 2
-24 6 -24 32 -4 19 15 19 16 2 29 -12 8 -14 15 -8 20 13 7 43 -19 33 -29 -3
-4 2 -4 13 0 11 5 14 9 7 12 -7 2 -12 8 -12 14 0 5 9 6 20 3 19 -6 126 43 115
53 -2 3 -16 -3 -29 -12 -30 -19 -40 -21 -30 -4 4 7 3 8 -5 4 -6 -4 -9 -11 -6
-16 8 -13 -23 -20 -47 -9 -20 8 -20 9 6 4 23 -5 27 -3 23 9 -7 18 27 40 49 32
8 -3 14 -1 14 5 0 7 10 9 25 5 14 -4 25 -2 25 4 0 5 5 10 11 10 5 0 7 -4 4
-10 -9 -15 1 -12 42 10 21 11 31 20 23 20 -13 0 -13 1 0 10 8 5 12 10 8 10
-15 0 32 40 46 40 8 0 18 5 21 10 3 6 5 10 3 9 -2 0 -18 -5 -36 -10z m-317
-209 c-3 -5 -11 -10 -16 -10 -6 0 -7 5 -4 10 3 6 11 10 16 10 6 0 7 -4 4 -10z"/>
<path d="M2445 4050 c-3 -5 1 -10 10 -10 9 0 13 5 10 10 -3 6 -8 10 -10 10 -2
0 -7 -4 -10 -10z"/>
<path d="M6334 3948 c-4 -7 -4 -10 1 -6 4 4 15 2 24 -5 14 -11 14 -10 2 6 -16
20 -18 21 -27 5z"/>
<path d="M2075 3890 c3 -5 8 -10 11 -10 2 0 4 5 4 10 0 6 -5 10 -11 10 -5 0
-7 -4 -4 -10z"/>
<path d="M2030 3860 c-23 -17 -23 -19 -5 -19 11 1 31 -2 45 -5 24 -6 24 -6 -2
7 -25 11 -25 14 -10 24 9 7 13 12 7 12 -5 0 -21 -8 -35 -19z"/>
<path d="M2075 3860 c-3 -5 -1 -10 4 -10 6 0 11 5 11 10 0 6 -2 10 -4 10 -3 0
-8 -4 -11 -10z"/>
<path d="M1974 3828 c-18 -29 -13 -40 10 -24 17 11 26 12 34 4 14 -14 24 -7
14 8 -12 19 -50 26 -58 12z m21 -8 c-3 -5 -12 -10 -18 -10 -7 0 -6 4 3 10 19
12 23 12 15 0z"/>
<path d="M1933 3790 c-3 -11 -9 -17 -14 -15 -4 3 -26 -7 -48 -23 -32 -23 -37
-32 -28 -42 10 -10 8 -12 -6 -6 -31 10 -38 -3 -15 -30 l22 -25 26 26 c25 25
92 79 126 103 17 11 17 12 -5 6 -13 -3 -35 -18 -49 -33 -13 -14 -28 -26 -32
-26 -5 0 -12 -3 -16 -7 -14 -14 -44 -9 -38 6 3 9 16 13 32 12 28 -3 54 22 59
56 4 25 -8 23 -14 -2z m-23 -35 c-7 -8 -17 -15 -22 -15 -6 0 -5 7 2 15 7 8 17
15 22 15 6 0 5 -7 -2 -15z m-57 -63 c2 7 8 9 13 5 5 -4 2 -12 -6 -17 -21 -14
-27 -12 -34 6 -5 14 -4 15 8 5 11 -9 15 -9 19 1z"/>
<path d="M1783 3676 c4 -11 2 -16 -6 -14 -12 3 -40 -20 -149 -121 -57 -54 -72
-76 -43 -65 8 4 12 10 9 15 -6 10 9 12 19 2 10 -9 -31 -36 -43 -28 -10 6 -32
-13 -60 -49 -12 -17 -13 -18 -1 -11 11 6 13 4 8 -9 -4 -10 -7 -22 -7 -27 0 -5
-4 -9 -10 -9 -5 0 -10 8 -10 18 0 12 -6 9 -20 -13 -11 -17 -17 -38 -14 -51 4
-15 0 -25 -13 -32 -10 -6 -15 -14 -11 -18 13 -12 47 39 42 62 -3 12 0 25 6 29
9 5 10 1 5 -14 -4 -13 -2 -21 5 -21 8 0 7 -8 -4 -25 -23 -35 -10 -31 22 7 50
59 81 107 74 112 -5 3 -16 -9 -26 -25 -10 -17 -20 -28 -24 -25 -3 3 2 14 10
23 8 10 14 28 13 41 -2 26 -1 26 25 10 17 -11 24 -8 49 16 27 26 46 72 43 106
-1 17 48 26 57 11 3 -5 28 10 54 33 l48 41 -27 24 c-20 17 -25 19 -21 7z m14
-31 c1 -6 -5 -9 -14 -7 -9 2 -12 -1 -8 -8 4 -6 -2 -20 -14 -31 -22 -20 -43
-27 -23 -7 20 20 13 32 -8 13 -11 -10 -20 -13 -20 -7 0 6 14 19 30 27 17 9 28
19 26 24 -3 4 3 7 12 6 9 0 18 -5 19 -10z m-140 -116 c-9 -11 -13 -27 -11 -33
3 -7 -7 -23 -21 -36 -26 -25 -36 -19 -10 6 18 18 20 34 4 34 -6 0 1 12 17 28
34 32 43 33 21 1z m-115 -107 c-7 -2 -9 -9 -6 -14 4 -7 2 -8 -4 -4 -6 4 -9 13
-6 21 4 8 11 12 17 8 8 -5 7 -8 -1 -11z m-12 -72 c0 -5 -5 -10 -11 -10 -5 0
-7 -4 -4 -10 7 -11 -8 -14 -18 -3 -8 7 11 33 24 33 5 0 9 -4 9 -10z"/>
<path d="M7815 3680 c3 -5 11 -10 16 -10 6 0 7 5 4 10 -3 6 -11 10 -16 10 -6
0 -7 -4 -4 -10z"/>
<path d="M1695 3559 c-4 -6 -4 -13 -1 -16 3 -3 0 -13 -7 -22 -11 -14 -10 -14
6 -2 9 8 15 16 12 19 -3 3 0 11 6 19 8 9 8 13 1 13 -6 0 -14 -5 -17 -11z"/>
<path d="M4033 3403 c54 -2 96 -7 93 -11 -2 -4 39 -7 92 -7 l97 0 -63 11 c-34
6 -119 11 -190 11 -111 -1 -115 -1 -29 -4z"/>
<path d="M3695 3388 c-22 -4 -59 -10 -83 -12 -24 -2 -46 -7 -50 -11 -4 -5 3
-5 16 -2 13 3 28 -1 36 -9 18 -18 26 -18 26 0 0 19 50 29 100 21 28 -5 40 -3
40 5 0 7 -7 10 -17 6 -9 -4 -19 -3 -22 2 -3 4 -24 4 -46 0z"/>
<path d="M4320 3390 c0 -6 7 -10 15 -10 8 0 15 2 15 4 0 2 -7 6 -15 10 -8 3
-15 1 -15 -4z"/>
<path d="M4045 3380 c-3 -5 3 -10 14 -10 12 0 21 5 21 10 0 6 -6 10 -14 10 -8
0 -18 -4 -21 -10z"/>
<path d="M4248 3363 c6 -2 18 -2 25 0 6 3 1 5 -13 5 -14 0 -19 -2 -12 -5z"/>
<path d="M3483 3350 c-32 -13 -29 -30 5 -29 24 0 25 1 7 9 -19 8 -19 9 3 9 12
1 22 6 22 11 0 12 -7 12 -37 0z"/>
<path d="M3535 3351 c3 -5 -1 -11 -7 -14 -7 -2 -10 -8 -6 -12 4 -4 21 -2 37 5
16 6 36 9 43 4 9 -4 10 -4 3 3 -13 13 -78 26 -70 14z"/>
<path d="M4585 3340 c-4 -6 3 -10 14 -10 25 0 27 6 6 13 -8 4 -17 2 -20 -3z"/>
<path d="M1426 3312 c-4 -10 -15 -28 -27 -40 -11 -12 -15 -22 -8 -22 7 0 9 -9
5 -26 -5 -17 -3 -23 4 -19 5 3 10 13 10 21 0 8 7 14 15 14 8 0 15 -4 15 -9 0
-5 -7 -14 -15 -21 -8 -7 -15 -20 -15 -28 0 -20 9 -10 40 43 16 26 19 36 8 27
-10 -8 -18 -9 -22 -3 -4 6 -14 8 -24 5 -10 -4 -13 -3 -6 3 6 4 14 18 18 31 4
12 12 20 17 17 5 -4 9 -2 9 4 0 19 -19 21 -24 3z"/>
<path d="M4631 3326 c8 -7 99 -35 99 -30 0 8 -67 34 -86 34 -10 0 -15 -2 -13
-4z"/>
<path d="M3120 3229 c-19 -10 -31 -18 -27 -19 12 0 77 28 77 34 0 9 -12 5 -50
-15z"/>
<path d="M1370 3229 c0 -5 5 -7 10 -4 6 3 10 8 10 11 0 2 -4 4 -10 4 -5 0 -10
-5 -10 -11z"/>
<path d="M1350 3200 c0 -5 7 -10 15 -10 8 0 15 5 15 10 0 6 -7 10 -15 10 -8 0
-15 -4 -15 -10z"/>
<path d="M4980 3200 c0 -5 5 -10 10 -10 6 0 10 5 10 10 0 6 -4 10 -10 10 -5 0
-10 -4 -10 -10z"/>
<path d="M6755 3190 c10 -11 23 -20 28 -20 6 0 0 9 -13 20 -13 11 -25 20 -28
20 -3 0 3 -9 13 -20z"/>
<path d="M1370 3164 c0 -8 -4 -12 -10 -9 -6 3 -7 -1 -4 -9 4 -11 0 -16 -10
-16 -9 0 -19 -7 -22 -15 -4 -8 -12 -15 -20 -15 -15 0 -49 -58 -40 -68 4 -3 12
9 18 26 8 20 18 30 26 27 7 -2 15 2 18 10 4 8 11 15 16 15 5 0 18 10 29 23 10
12 18 17 19 11 0 -5 -8 -19 -18 -30 -19 -20 -22 -26 -22 -46 0 -9 -4 -8 -11 2
-9 13 -10 13 -8 0 3 -33 -2 -44 -12 -22 -10 27 -24 22 -32 -10 -6 -21 -5 -22
7 -5 13 16 14 16 20 1 4 -9 4 -19 1 -22 -3 -3 -5 -1 -5 4 -1 5 -7 -8 -15 -30
-7 -21 -11 -46 -8 -55 5 -12 3 -13 -6 -5 -7 6 -14 29 -15 50 -2 21 -5 41 -5
44 -1 3 -13 -15 -25 -40 -13 -25 -22 -48 -19 -53 2 -4 -3 -14 -11 -23 -9 -8
-16 -20 -16 -25 0 -6 12 3 26 20 29 35 54 40 54 12 0 -14 -5 -18 -20 -14 -11
3 -20 1 -20 -5 0 -6 8 -13 18 -15 14 -4 14 -6 -5 -12 -20 -6 -21 -12 -16 -59
7 -64 13 -72 13 -17 0 26 4 40 10 36 6 -3 10 -1 10 4 0 6 -5 11 -11 11 -6 0
-3 7 5 16 23 22 58 103 51 114 -3 6 -1 10 5 10 6 0 8 5 5 10 -3 6 -2 10 3 10
5 0 12 8 15 18 3 9 22 45 42 80 21 36 31 61 23 60 -7 -2 -12 3 -10 10 1 6 -2
12 -8 12 -5 0 -10 -7 -10 -16z m-131 -228 c-9 -8 -10 -7 -5 7 3 10 7 24 7 30
1 7 3 4 6 -7 3 -10 -1 -23 -8 -30z"/>
<path d="M1320 3150 c0 -5 5 -10 10 -10 6 0 10 5 10 10 0 6 -4 10 -10 10 -5 0
-10 -4 -10 -10z"/>
<path d="M2877 3093 c-6 -13 31 -44 39 -32 3 6 4 11 3 12 -2 2 -11 8 -21 15
-9 7 -18 9 -21 5z"/>
<path d="M2810 3039 c-27 -23 -29 -28 -10 -18 27 12 66 49 53 49 -4 0 -24 -14
-43 -31z"/>
<path d="M1275 2989 c-4 -6 -5 -12 -2 -15 2 -3 7 2 10 11 7 17 1 20 -8 4z"/>
<path d="M2770 2980 c0 -5 5 -10 10 -10 6 0 10 5 10 10 0 6 -4 10 -10 10 -5 0
-10 -4 -10 -10z"/>
<path d="M1180 2856 c0 -2 7 -7 16 -10 8 -3 12 -2 9 4 -6 10 -25 14 -25 6z"/>
<path d="M1170 2801 c-9 -23 -9 -37 -1 -58 9 -21 10 -23 7 -5 -3 13 0 37 6 53
14 40 4 48 -12 10z"/>
<path d="M1201 2804 c0 -11 3 -14 6 -6 3 7 2 16 -1 19 -3 4 -6 -2 -5 -13z"/>
<path d="M2581 2793 c-10 -26 -10 -27 4 -9 8 11 15 23 15 28 0 15 -7 8 -19
-19z"/>
<path d="M2607 2790 c-3 -11 -1 -20 4 -20 5 0 9 2 9 4 0 2 3 11 6 20 3 9 2 16
-4 16 -5 0 -12 -9 -15 -20z"/>
<path d="M1203 2754 c6 -33 -18 -63 -44 -57 -13 4 -19 0 -19 -10 0 -8 -3 -23
-7 -33 -4 -12 -3 -15 5 -10 7 4 12 16 12 27 0 12 5 19 13 16 7 -2 12 -19 11
-40 -1 -20 3 -34 7 -31 5 3 9 20 9 39 0 19 5 37 12 41 7 4 8 3 4 -4 -4 -7 -3
-12 2 -12 15 0 24 48 13 69 -6 10 -7 21 -4 25 3 3 1 6 -6 6 -9 0 -12 -9 -8
-26z"/>
<path d="M2554 2749 c-3 -6 -1 -16 4 -21 8 -8 11 -5 9 11 -1 24 -3 25 -13 10z"/>
<path d="M2550 2700 c0 -6 -6 -8 -12 -4 -10 6 -10 4 0 -7 9 -9 15 -10 23 -2 8
8 8 13 0 17 -6 4 -11 2 -11 -4z"/>
<path d="M1206 2657 c3 -10 9 -15 12 -12 3 3 0 11 -7 18 -10 9 -11 8 -5 -6z"/>
<path d="M2520 2651 c0 -10 -9 -25 -20 -32 -12 -9 -21 -29 -24 -57 -2 -24 -10
-49 -16 -57 -7 -8 -10 -20 -7 -27 5 -13 33 50 29 65 -1 4 5 7 13 7 9 0 15 9
15 25 0 14 -5 25 -12 25 -6 0 -9 3 -5 6 11 11 47 -7 48 -24 0 -14 2 -13 8 3 5
11 7 23 4 28 -2 4 -2 7 2 7 3 0 10 -10 15 -22 7 -20 9 -18 9 16 1 31 -2 36
-12 27 -8 -6 -17 -8 -20 -4 -4 3 -7 -1 -7 -10 0 -9 -4 -17 -8 -17 -5 0 -7 14
-4 30 2 17 2 30 -2 30 -3 0 -6 -8 -6 -19z"/>
<path d="M2540 2660 c0 -5 5 -10 11 -10 5 0 7 5 4 10 -3 6 -8 10 -11 10 -2 0
-4 -4 -4 -10z"/>
<path d="M1126 2614 c-3 -9 -5 -25 -5 -37 1 -17 3 -15 9 8 l8 30 1 -34 c1 -42
6 -38 15 12 5 29 4 37 -7 37 -8 0 -18 -7 -21 -16z"/>
<path d="M1201 2614 c0 -11 3 -14 6 -6 3 7 2 16 -1 19 -3 4 -6 -2 -5 -13z"/>
<path d="M4640 2600 c0 -5 7 -10 15 -10 8 0 15 5 15 10 0 6 -7 10 -15 10 -8 0
-15 -4 -15 -10z"/>
<path d="M4680 2575 c0 -8 7 -15 15 -15 8 0 15 4 15 9 0 5 -7 11 -15 15 -9 3
-15 0 -15 -9z"/>
<path d="M1119 2538 c-7 -12 -5 -208 2 -223 5 -12 8 28 7 103 -1 106 -3 131
-9 120z"/>
<path d="M4820 2450 c0 -5 5 -10 11 -10 5 0 7 5 4 10 -3 6 -8 10 -11 10 -2 0
-4 -4 -4 -10z"/>
<path d="M2473 2405 c0 -27 2 -38 4 -22 2 15 2 37 0 50 -2 12 -4 0 -4 -28z"/>
<path d="M2560 2439 c0 -5 5 -7 10 -4 6 3 10 8 10 11 0 2 -4 4 -10 4 -5 0 -10
-5 -10 -11z"/>
<path d="M2493 2370 c0 -41 2 -58 4 -37 2 20 2 54 0 75 -2 20 -4 3 -4 -38z"/>
<path d="M2570 2355 c0 -8 -5 -15 -10 -15 -6 0 -9 -13 -8 -29 1 -16 5 -28 9
-25 4 2 10 -8 12 -23 2 -16 4 2 4 40 1 37 -1 67 -3 67 -2 0 -4 -7 -4 -15z"/>
<path d="M2461 2254 c0 -11 3 -14 6 -6 3 7 2 16 -1 19 -3 4 -6 -2 -5 -13z"/>
<path d="M2595 2248 c11 -36 22 -41 17 -8 -2 16 -9 30 -14 30 -5 0 -6 -10 -3
-22z"/>
<path d="M2517 2216 c-3 -7 7 -23 24 -35 l29 -22 0 28 c0 22 -2 25 -10 13 -8
-13 -11 -11 -16 8 -7 25 -19 29 -27 8z"/>
<path d="M1222 2190 c0 -14 2 -19 5 -12 2 6 2 18 0 25 -3 6 -5 1 -5 -13z"/>
<path d="M1240 1919 c0 -5 5 -7 10 -4 6 3 10 8 10 11 0 2 -4 4 -10 4 -5 0 -10
-5 -10 -11z"/>
<path d="M1263 1902 c-8 -5 -8 -12 2 -25 8 -11 16 -14 20 -8 9 15 -8 41 -22
33z"/>
<path d="M2200 1826 c0 -2 8 -10 18 -17 15 -13 16 -12 3 4 -13 16 -21 21 -21
13z"/>
<path d="M2230 1786 c0 -2 8 -10 18 -17 15 -13 16 -12 3 4 -13 16 -21 21 -21
13z"/>
<path d="M1507 1476 c4 -6 15 -17 26 -25 11 -7 16 -20 12 -29 -6 -16 40 -72
59 -72 6 0 0 7 -12 16 -21 15 -22 17 -8 33 15 16 14 19 -8 30 -13 7 -28 23
-34 35 -5 13 -17 23 -26 23 -8 0 -12 -5 -9 -11z"/>
<path d="M1595 1390 c3 -5 11 -10 16 -10 6 0 7 5 4 10 -3 6 -11 10 -16 10 -6
0 -7 -4 -4 -10z"/>
<path d="M1620 1335 c0 -10 49 -53 75 -66 20 -10 20 -10 1 5 -11 9 -17 18 -14
21 3 3 17 -4 31 -16 32 -24 37 -12 6 14 -11 10 -27 16 -35 13 -7 -3 -16 0 -20
6 -4 6 -3 8 4 4 6 -3 14 -1 18 5 4 8 3 9 -4 5 -7 -4 -12 -1 -12 6 0 10 -3 9
-9 -1 -8 -12 -12 -12 -25 -2 -9 8 -16 10 -16 6z"/>
<path d="M2050 1046 c0 -2 7 -7 16 -10 8 -3 12 -2 9 4 -6 10 -25 14 -25 6z"/>
</g>
</svg>
